<?xml version="1.0" ?><!DOCTYPE svg  PUBLIC '-//W3C//DTD SVG 1.1//EN'  'http://www.w3.org/Graphics/SVG/1.1/DTD/svg11.dtd'><svg enable-background="new 0 0 512 512" height="512px" version="1.1" viewBox="0 0 512 512" width="512px" xml:space="preserve" xmlns="http://www.w3.org/2000/svg" xmlns:xlink="http://www.w3.org/1999/xlink"><g><g id="Guides"/><g id="Layer_2"><g><path d="M507,256.879c0,138.066-111.934,250-250,250c-138.067,0-250-111.934-250-250      c0-138.067,111.933-250,250-250C395.066,6.879,507,118.812,507,256.879L507,256.879z M507,256.879" fill="#5FA9DD"/><path d="M410.125,186.551c-10.706,4.747-22.239,7.964-34.315,9.403c12.338-7.404,21.803-19.108,26.286-33.056      c-11.555,6.835-24.35,11.816-37.95,14.495c-10.901-11.62-26.438-18.869-43.628-18.869c-33.01,0-59.753,26.768-59.753,59.75      c0,4.681,0.522,9.253,1.545,13.627c-49.656-2.502-93.698-26.289-123.162-62.454c-5.157,8.837-8.095,19.103-8.095,30.048      c0,20.74,10.554,39.04,26.569,49.746c-9.792-0.308-18.996-3.003-27.069-7.485c0,0.261,0,0.5,0,0.762      c0,28.94,20.607,53.094,47.938,58.577c-5.005,1.371-10.292,2.116-15.732,2.116c-3.852,0-7.594-0.375-11.25-1.071      c7.616,23.74,29.681,41.018,55.836,41.496c-20.454,16.037-46.218,25.568-74.223,25.568c-4.831,0-9.596-0.262-14.253-0.827      c26.438,16.951,57.838,26.852,91.588,26.852c109.91,0,170.032-91.065,170.032-170.029c0-2.592-0.065-5.16-0.174-7.728      C391.999,209.051,402.117,198.521,410.125,186.551L410.125,186.551z M410.125,186.551" fill="#F2F2F2"/></g></g></g></svg>